<svg width="308" height="157" viewBox="0 0 308 157" fill="none" xmlns="http://www.w3.org/2000/svg">
<path d="M3.27273 71V1.18182H25.8068C30.7614 1.18182 34.8977 2.13636 38.2159 4.04545C41.5568 5.93182 44.0682 8.5 45.75 11.75C47.4545 15 48.3068 18.6591 48.3068 22.7273C48.3068 26.7955 47.4659 30.4659 45.7841 33.7386C44.1023 36.9886 41.6023 39.5682 38.2841 41.4773C34.9659 43.3636 30.8409 44.3068 25.9091 44.3068H8.18182V38.5795H25.7386C29.3977 38.5795 32.4318 37.8977 34.8409 36.5341C37.25 35.1477 39.0455 33.2614 40.2273 30.875C41.4318 28.4886 42.0341 25.7727 42.0341 22.7273C42.0341 19.6818 41.4318 16.9659 40.2273 14.5795C39.0455 12.1932 37.2386 10.3182 34.8068 8.95455C32.3977 7.59091 29.3409 6.90909 25.6364 6.90909H9.64773V71H3.27273ZM120.511 36.0909C120.511 43.3636 119.216 49.6932 116.625 55.0795C114.034 60.4432 110.466 64.6023 105.92 67.5568C101.398 70.4886 96.1932 71.9545 90.3068 71.9545C84.4205 71.9545 79.2045 70.4886 74.6591 67.5568C70.1364 64.6023 66.5795 60.4432 63.9886 55.0795C61.4205 49.6932 60.1364 43.3636 60.1364 36.0909C60.1364 28.8182 61.4205 22.5 63.9886 17.1364C66.5795 11.75 70.1477 7.59091 74.6932 4.65909C79.2386 1.70454 84.4432 0.22727 90.3068 0.22727C96.1932 0.22727 101.398 1.70454 105.92 4.65909C110.466 7.59091 114.034 11.75 116.625 17.1364C119.216 22.5 120.511 28.8182 120.511 36.0909ZM114.307 36.0909C114.307 29.8409 113.261 24.4886 111.17 20.0341C109.08 15.5568 106.227 12.1364 102.614 9.77272C99 7.40909 94.8977 6.22727 90.3068 6.22727C85.7386 6.22727 81.6477 7.40909 78.0341 9.77272C74.4205 12.1364 71.5568 15.5455 69.4432 20C67.3523 24.4545 66.3068 29.8182 66.3068 36.0909C66.3068 42.3409 67.3523 47.6932 69.4432 52.1477C71.5341 56.6023 74.3864 60.0227 78 62.4091C81.6136 64.7727 85.7159 65.9545 90.3068 65.9545C94.8977 65.9545 99 64.7727 102.614 62.4091C106.25 60.0455 109.114 56.6364 111.205 52.1818C113.295 47.7045 114.33 42.3409 114.307 36.0909ZM135.929 71V1.18182H142.304V65.2727H175.577V71H135.929ZM194.438 71H187.756L213.153 1.18182H219.972L245.369 71H238.688L216.801 9.46591H216.324L194.438 71ZM199.244 44.2386H233.881V49.9659H199.244V44.2386ZM257.335 71V1.18182H279.869C284.824 1.18182 288.96 2.07954 292.278 3.875C295.619 5.64772 298.131 8.11363 299.812 11.2727C301.517 14.4091 302.369 18.0114 302.369 22.0795C302.369 26.1477 301.517 29.7386 299.812 32.8523C298.131 35.9659 295.631 38.3977 292.312 40.1477C288.994 41.8977 284.881 42.7727 279.972 42.7727H260.778V36.9432H279.801C283.438 36.9432 286.46 36.3409 288.869 35.1364C291.301 33.9318 293.108 32.2159 294.29 29.9886C295.494 27.7614 296.097 25.125 296.097 22.0795C296.097 19.0341 295.494 16.375 294.29 14.1023C293.085 11.8068 291.267 10.0341 288.835 8.78409C286.426 7.53409 283.381 6.90909 279.699 6.90909H263.71V71H257.335ZM288.119 39.5L305.301 71H297.938L280.926 39.5H288.119ZM0.0681818 157V87.1818H47.1136V99.3523H14.8295V115.989H44.6932V128.159H14.8295V144.83H47.25V157H0.0681818ZM72.6903 87.1818L86.7699 110.977H87.3153L101.463 87.1818H118.134L96.8267 122.091L118.611 157H101.634L87.3153 133.17H86.7699L72.4517 157H55.5426L77.3949 122.091L55.9517 87.1818H72.6903ZM127.474 157V87.1818H155.02C160.315 87.1818 164.827 88.1932 168.554 90.2159C172.281 92.2159 175.122 95 177.077 98.5682C179.054 102.114 180.043 106.205 180.043 110.841C180.043 115.477 179.043 119.568 177.043 123.114C175.043 126.659 172.145 129.42 168.349 131.398C164.577 133.375 160.009 134.364 154.645 134.364H137.088V122.534H152.259C155.099 122.534 157.44 122.045 159.281 121.068C161.145 120.068 162.531 118.693 163.44 116.943C164.372 115.17 164.838 113.136 164.838 110.841C164.838 108.523 164.372 106.5 163.44 104.773C162.531 103.023 161.145 101.67 159.281 100.716C157.418 99.7386 155.054 99.25 152.19 99.25H142.236V157H127.474ZM189.631 157V87.1818H236.676V99.3523H204.392V115.989H234.256V128.159H204.392V144.83H236.812V157H189.631ZM273.162 157H248.412V87.1818H273.366C280.389 87.1818 286.435 88.5795 291.503 91.375C296.571 94.1477 300.469 98.1364 303.196 103.341C305.946 108.545 307.321 114.773 307.321 122.023C307.321 129.295 305.946 135.545 303.196 140.773C300.469 146 296.548 150.011 291.435 152.807C286.344 155.602 280.253 157 273.162 157ZM263.173 144.352H272.548C276.912 144.352 280.582 143.58 283.56 142.034C286.56 140.466 288.81 138.045 290.31 134.773C291.832 131.477 292.594 127.227 292.594 122.023C292.594 116.864 291.832 112.648 290.31 109.375C288.81 106.102 286.571 103.693 283.594 102.148C280.616 100.602 276.946 99.8295 272.582 99.8295H263.173V144.352Z" fill="#525252"/>
</svg>
