<svg width="24" height="24"  viewBox="0 0 20 20" fill="none" xmlns="http://www.w3.org/2000/svg"  >
<path fill-rule="evenodd" clip-rule="evenodd" d="M20.1668 11.0002C20.1668 16.0628 16.0628 20.1668 11.0002 20.1668C5.93755 20.1668 1.8335 16.0628 1.8335 11.0002C1.8335 5.93755 5.93755 1.8335 11.0002 1.8335C16.0628 1.8335 20.1668 5.93755 20.1668 11.0002ZM14.6946 8.22236C14.9631 8.49085 14.9631 8.92615 14.6946 9.19463L10.1113 13.778C9.84281 14.0465 9.40751 14.0465 9.13903 13.778L7.30569 11.9446C7.03721 11.6761 7.03721 11.2408 7.30569 10.9724C7.57418 10.7039 8.00948 10.7039 8.27797 10.9724L9.62516 12.3196L11.6738 10.271L13.7224 8.22236C13.9908 7.95387 14.4261 7.95387 14.6946 8.22236Z" fill="#00BC55"></path>
</svg>